<svg width="28" height="28" viewBox="0 0 28 28" fill="none" xmlns="http://www.w3.org/2000/svg">
<path fill-rule="evenodd" clip-rule="evenodd" d="M25 0H3C1.3125 0 0 1.375 0 3V25C0 26.6875 1.3125 28 3 28H25C26.625 28 28 26.6875 28 25V3C28 1.375 26.625 0 25 0ZM22.8581 15.4456C23.2072 15.7002 23.4048 16.0575 23.4508 16.5173H25.8389C25.8274 15.8219 25.6394 15.21 25.2749 14.6817C24.9105 14.1534 24.4003 13.7411 23.7443 13.4447C23.0921 13.1482 22.3287 13 21.454 13C20.5947 13 19.8274 13.1482 19.1522 13.4447C18.477 13.7411 17.9457 14.1534 17.5582 14.6817C17.1746 15.21 16.9847 15.8276 16.9886 16.5344C16.9847 17.3972 17.2705 18.0831 17.846 18.5924C18.4214 19.1017 19.2059 19.476 20.1995 19.7154L21.4828 20.0347C21.9124 20.1373 22.275 20.2513 22.5704 20.3767C22.8696 20.5021 23.0959 20.6542 23.2494 20.8328C23.4067 21.0114 23.4853 21.2318 23.4853 21.4941C23.4853 21.7753 23.399 22.0242 23.2264 22.2409C23.0537 22.4575 22.8101 22.6266 22.4955 22.7482C22.1848 22.8698 21.8184 22.9306 21.3965 22.9306C20.9668 22.9306 20.5812 22.866 20.2398 22.7368C19.9022 22.6038 19.6318 22.4081 19.4284 22.1496C19.2289 21.8874 19.1158 21.5606 19.0889 21.1691H16.6778C16.697 22.009 16.9022 22.714 17.2935 23.2841C17.6887 23.8504 18.2373 24.2779 18.9393 24.5667C19.6452 24.8556 20.4738 25 21.4252 25C22.3843 25 23.2033 24.8575 23.8824 24.5724C24.5652 24.2836 25.087 23.8789 25.4476 23.3582C25.812 22.8337 25.9962 22.2143 26 21.4998C25.9962 21.0133 25.906 20.5819 25.7295 20.2057C25.5569 19.8295 25.3133 19.5026 24.9987 19.2252C24.6842 18.9477 24.312 18.714 23.8824 18.524C23.4527 18.334 22.9808 18.1819 22.4668 18.0679L21.408 17.8171C21.1509 17.7601 20.9092 17.6917 20.6829 17.6119C20.4566 17.5283 20.2571 17.4314 20.0844 17.3211C19.9118 17.2071 19.7756 17.0722 19.6759 16.9164C19.58 16.7606 19.5359 16.5781 19.5435 16.3691C19.5435 16.1183 19.6164 15.8941 19.7622 15.6964C19.9118 15.4988 20.1266 15.3449 20.4067 15.2347C20.6867 15.1207 21.0301 15.0637 21.4367 15.0637C22.0352 15.0637 22.509 15.191 22.8581 15.4456ZM7 13.1596V15.1948H10.608V24.8347H13.0709V15.1948H16.679V13.1596H7Z" fill="#FA7201"/>
</svg>
